Coordinates
version=1
nRows=8
nColumns=40
inDegrees=yes

Units are S.I. units (second, meters, Newtons, ...)
If the header above contains a line with 'inDegrees', this indicates whether rotational values are in degrees (yes) or radians (no).

endheader
time	pelvis_tilt	pelvis_list	pelvis_rotation	pelvis_tx	pelvis_ty	pelvis_tz	hip_flexion_r	hip_adduction_r	hip_rotation_r	knee_angle_r	knee_angle_r_beta	ankle_angle_r	subtalar_angle_r	mtp_angle_r	hip_flexion_l	hip_adduction_l	hip_rotation_l	knee_angle_l	knee_angle_l_beta	ankle_angle_l	subtalar_angle_l	mtp_angle_l	lumbar_extension	lumbar_bending	lumbar_rotation	arm_flex_r	arm_add_r	arm_rot_r	elbow_flex_r	pro_sup_r	wrist_flex_r	wrist_dev_r	arm_flex_l	arm_add_l	arm_rot_l	elbow_flex_l	pro_sup_l	wrist_flex_l	wrist_dev_l
      1.56000000	     -4.65641438	      6.89059625	    -84.99489813	      0.18176733	      0.99348440	      1.32328357	     16.13125170	      7.73718276	     -8.75057439	     10.70140271	      0.18677471	      0.78746965	      0.00000000	      0.00000000	     22.17324873	     -4.72744166	      3.89022237	     63.04689942	      1.10037598	    -11.74581297	      0.00000000	      0.00000000	     -2.01826105	      4.02262068	     -4.30534616	      0.00000000	      0.00000000	      0.00000000	      0.00000000	      0.00000000	      0.00000000	      0.00000000	      0.00000000	      0.00000000	      0.00000000	      0.00000000	      0.00000000	      0.00000000	      0.00000000
      1.57000000	     -4.25105878	      6.95910225	    -85.34238856	      0.18048515	      0.99535813	      1.33675959	     14.77556622	      7.59382025	     -8.33883432	      9.79341357	      0.17092731	      1.08177040	      0.00000000	      0.00000000	     23.73420947	     -4.39650542	      3.42387125	     62.68452544	      1.09405136	    -10.31587840	      0.00000000	      0.00000000	     -2.01039595	      3.45521559	     -3.99930959	      0.00000000	      0.00000000	      0.00000000	      0.00000000	      0.00000000	      0.00000000	      0.00000000	      0.00000000	      0.00000000	      0.00000000	      0.00000000	      0.00000000	      0.00000000	      0.00000000
      1.58000000	     -3.85091309	      7.05488283	    -85.69429404	      0.17927022	      0.99690712	      1.35019836	     13.47587244	      7.43091467	     -7.87940456	      8.91747657	      0.15563933	      1.40717266	      0.00000000	      0.00000000	     25.25307364	     -4.06598577	      2.95348711	     62.05432335	      1.08305226	     -8.96827752	      0.00000000	      0.00000000	     -1.95977503	      2.90189823	     -3.69491673	      0.00000000	      0.00000000	      0.00000000	      0.00000000	      0.00000000	      0.00000000	      0.00000000	      0.00000000	      0.00000000	      0.00000000	      0.00000000	      0.00000000	      0.00000000	      0.00000000
      1.59000000	     -3.48395734	      7.16049671	    -86.07041965	      0.17807134	      0.99812593	      1.36369544	     12.21022875	      7.28981245	     -7.35230872	      8.07536490	      0.14094171	      1.75781253	     -0.00000000	     -0.00000000	     26.67809776	     -3.79486018	      2.45039687	     61.12025264	      1.06674965	     -7.66425464	      0.00000000	      0.00000000	     -1.87916144	      2.39168518	     -3.37344634	      0.00000000	     -0.00000000	     -0.00000000	      0.00000000	      0.00000000	      0.00000000	      0.00000000	      0.00000000	     -0.00000000	      0.00000000	      0.00000000	      0.00000000	      0.00000000	      0.00000000
      1.60000000	     -3.15048833	      7.23859187	    -86.50192190	      0.17686058	      0.99907776	      1.37721703	     10.94116921	      7.17442134	     -6.76239563	      7.27197778	      0.12691996	      2.12436753	      0.00000000	      0.00000000	     27.96635137	     -3.60414866	      1.88134857	     59.90601711	      1.04555724	     -6.42029338	     -0.00000000	     -0.00000000	     -1.83644230	      1.94076440	     -3.01645406	     -0.00000000	     -0.00000000	      0.00000000	      0.00000000	      0.00000000	      0.00000000	     -0.00000000	      0.00000000	      0.00000000	     -0.00000000	      0.00000000	      0.00000000	     -0.00000000	     -0.00000000
      1.61000000	     -2.86052888	      7.30766314	    -86.94411997	      0.17561264	      0.99967712	      1.39086436	      9.67205782	      7.09197961	     -6.17573757	      6.48574858	      0.11319767	      2.53352795	      0.00000000	      0.00000000	     29.14310322	     -3.49135850	      1.29093389	     58.43019660	      1.01979931	     -5.23761268	      0.00000000	      0.00000000	     -1.76772183	      1.51963864	     -2.63516453	      0.00000000	      0.00000000	      0.00000000	      0.00000000	      0.00000000	      0.00000000	      0.00000000	      0.00000000	      0.00000000	      0.00000000	      0.00000000	      0.00000000	      0.00000000	      0.00000000
      1.62000000	     -2.61444168	      7.35627391	    -87.42341948	      0.17448554	      0.99996161	      1.40457087	      8.40567341	      7.03143233	     -5.51432324	      5.74861786	      0.10033231	      2.95419653	      0.00000000	      0.00000000	     30.17736786	     -3.42607428	      0.70219205	     56.67320372	      0.98913400	     -4.08802944	      0.00000000	      0.00000000	     -1.71520825	      1.20691122	     -2.23382049	      0.00000000	      0.00000000	      0.00000000	      0.00000000	      0.00000000	      0.00000000	      0.00000000	      0.00000000	      0.00000000	      0.00000000	      0.00000000	      0.00000000	      0.00000000	      0.00000000
      1.63000000	     -2.44837810	      7.46834840	    -87.86108515	      0.17338477	      0.99977618	      1.41828466	      7.24368711	      7.02526541	     -4.95891890	      5.06611752	      0.08842043	      3.41012725	      0.00000000	      0.00000000	     31.19644267	     -3.42527040	      0.18716415	     54.67528051	      0.95426366	     -3.03326051	      0.00000000	      0.00000000	     -1.58300801	      0.95969894	     -1.85799026	      0.00000000	      0.00000000	      0.00000000	      0.00000000	      0.00000000	      0.00000000	      0.00000000	      0.00000000	      0.00000000	      0.00000000	      0.00000000	      0.00000000	      0.00000000	      0.00000000
